# xmcd
# 
# Track frame offsets:
#     150
#     53640
#     72531
#     114266
#     136882
#     165933
#     185251
#     198564
# 
# Disc length: 3083
# 
# Revision: 2
# Processed by: cddbd v1.5.2PL0 Copyright (c) Steve Scherf et al.
# Submitted via: fre:ac v1.0.31
# 
DISCID=670c0908
DTITLE=Elton John - Live At Hammersmith Odeon 1973 Disc 1
DYEAR=2014
DGENRE=Rock/Pop
TTITLE0=Funeral For A Friend/Love Lies Bleeding
TTITLE1=Candle In The Wind
TTITLE2=Hercules
TTITLE3=Rocket Man
TTITLE4=Bennie And The Jets
TTITLE5=Daniel
TTITLE6=This Song Has No Title
TTITLE7=Honky Cat
EXTD=
EXTT0=
EXTT1=
EXTT2=
EXTT3=
EXTT4=
EXTT5=
EXTT6=
EXTT7=
PLAYORDER=
